<?xml version="1.0" encoding="UTF-8"?>
<svg width="64" height="64" version="1.1" viewBox="0 0 64 64" xmlns="http://www.w3.org/2000/svg">
 <path d="m32 4c-0.817 1.126-1.674 2.219-2.556 3.287-4.499 5.451-9.457 10.521-12.444 16.713-3.101 6.426-4.035 14.042-2.166 20.978 1.87 6.936 6.505 13.164 12.85 16.498 6.345 3.334 14.287 3.859 21.009 1.337 6.722-2.522 12.115-8.076 14.423-14.862 2.308-6.786 1.714-14.498-1.616-20.824-3.33-6.326-9.093-11.088-13.934-16.413-2.955-3.251-5.733-6.671-8.233-10.27-0.833-1.2-1.633-2.424-2.4-3.667-1.644-2.657-4.933 2.657-4.933 7.223z" fill="#2196f3" stroke="#1976d2" stroke-linecap="round" stroke-linejoin="round" stroke-width="2"/>
</svg> 